<?xml version="1.0" encoding="UTF-8"?>
<svg id="Layer_1" xmlns="http://www.w3.org/2000/svg" version="1.1" viewBox="0 0 2000 2000">
  <!-- Generator: Adobe Illustrator 30.0.0, SVG Export Plug-In . SVG Version: 2.1.1 Build 123)  -->
  <defs>
    <style>
      .st0 {
        fill: #1d1d1b;
      }
    </style>
  </defs>
  <g>
    <path class="st0" d="M544.02,877.84h10.71v71.95h-10.71v-71.95Z"/>
    <path class="st0" d="M607.87,877.84h13.15l24.07,57.76,24.04-57.76h13.15v71.95h-10.68v-52.82h-.43l-21.89,52.82h-8.42l-22-52.82h-.32v52.82h-10.68v-71.95Z"/>
    <path class="st0" d="M735.5,877.84h13.15l24.07,57.76,24.04-57.76h13.15v71.95h-10.68v-52.82h-.43l-21.89,52.82h-8.42l-22-52.82h-.32v52.82h-10.68v-71.95Z"/>
    <path class="st0" d="M861.13,913.79c0-23.21,13.76-36.88,33.17-36.88s33.12,13.67,33.12,36.88-13.79,37.02-33.12,37.02-33.17-13.79-33.17-37.02ZM916.51,913.79c0-17.86-9.05-27.63-22.2-27.63s-22.29,9.77-22.29,27.63,9.05,27.74,22.29,27.74,22.2-9.85,22.2-27.74Z"/>
    <path class="st0" d="M978.66,877.84h27.46c15.31,0,22.2,7.21,22.2,17.58,0,7.61-3.62,12.64-9.97,14.91,9.33,2.56,14.68,8.82,14.68,18.58,0,11.92-8.33,20.88-26.31,20.88h-28.06v-71.95ZM1017.32,896.73c0-6.46-4.34-9.85-11.92-9.85h-16.06v20.05h16.06c7.58,0,11.92-3.5,11.92-10.2ZM1021.74,928.18c0-7.18-4.85-12.21-15.62-12.21h-16.77v24.64h16.77c10.77,0,15.62-5.23,15.62-12.44Z"/>
    <path class="st0" d="M1083.26,877.84h10.68v71.95h-10.68v-71.95Z"/>
    <path class="st0" d="M1147.11,877.84h10.71v62.58h35.64v9.36h-46.36v-71.95Z"/>
    <path class="st0" d="M1243.56,877.84h10.71v71.95h-10.71v-71.95Z"/>
    <path class="st0" d="M1307.37,877.84h46.76v9.36h-36.05v21.57h32.97v8.53h-32.97v23.12h37.08v9.36h-47.79v-71.95Z"/>
    <path class="st0" d="M1405.34,877.84h11.52l35.15,55.2h.32v-55.2h10.68v71.95h-11.92l-34.84-54.69h-.23v54.69h-10.68v-71.95Z"/>
  </g>
  <g>
    <path class="st0" d="M83.98,1070.9h6.29c.52,8.65,6.66,15.62,20.65,15.62,13.04,0,19.21-6.18,19.21-15.02s-6.58-12.52-15.51-14.36l-9.36-1.87c-12.95-2.67-19.1-8.93-19.1-18.61,0-10.89,8.01-18.58,24.04-18.58s24.15,7.61,24.15,18.3h-6.06c-.52-7.09-5.86-12.87-18.09-12.87s-17.58,5.77-17.58,13.15c0,6.69,4.11,11.43,14.59,13.47l9.25,1.87c11.92,2.36,20.13,7.38,20.13,19.42,0,12.64-9.33,20.56-25.79,20.56-17.86,0-26.83-9.28-26.83-21.08Z"/>
    <path class="st0" d="M186.91,1054.96c0-24.56,13.47-36.88,32.08-36.88,14.27,0,24.87,7.09,27.54,20.65h-6.29c-2.67-9.65-10.37-15.11-21.25-15.11-15.11,0-25.79,10.48-25.79,31.33s10.68,31.45,25.79,31.45c10.89,0,18.58-5.43,21.25-15.19h6.29c-2.67,13.67-13.27,20.77-27.54,20.77-18.61,0-32.08-12.35-32.08-37.02Z"/>
    <path class="st0" d="M344.34,1058.58h-41.13v32.37h-6.26v-71.95h6.26v34.24h41.13v-34.24h6.26v71.95h-6.26v-32.37Z"/>
    <path class="st0" d="M428.37,1019h7.5l27.97,71.95h-6.69l-7.41-19.44h-35.24l-7.41,19.44h-6.66l27.95-71.95ZM447.79,1066.59l-15.39-40.5h-.52l-15.42,40.5h31.33ZM419.04,1002.86c0-2.24,1.95-4.19,4.19-4.19s4.22,1.95,4.22,4.19-1.95,4.22-4.22,4.22-4.19-1.95-4.19-4.22ZM436.82,1002.86c0-2.24,1.95-4.19,4.19-4.19s4.22,1.95,4.22,4.19-1.95,4.22-4.22,4.22-4.19-1.95-4.19-4.22Z"/>
    <path class="st0" d="M523.58,1024.75h-23.32v-5.74h52.9v5.74h-23.32v66.2h-6.26v-66.2Z"/>
    <path class="st0" d="M601.56,1085.29l46.56-60.63h-44.49v-5.66h51.67v5.66l-46.64,60.63h47.07v5.66h-54.17v-5.66Z"/>
    <path class="st0" d="M707.17,1063.81v-44.81h6.38v44.49c0,14.71,7.61,22.83,20.65,22.83s20.77-8.13,20.77-22.83v-44.49h6.38v44.81c0,17.78-10.4,28.18-27.14,28.18s-27.03-10.4-27.03-28.18Z"/>
    <path class="st0" d="M814.73,1019h7.41l40.9,62.7h.2v-62.7h6.26v71.95h-7.5l-40.7-62.58h-.32v62.58h-6.26v-71.95Z"/>
    <path class="st0" d="M921.37,1054.96c0-24.56,13.38-36.88,32.28-36.88,13.76,0,23.32,6.38,26.42,18.09h-6.18c-2.87-7.81-9.45-12.55-20.25-12.55-15.62,0-25.99,10.37-25.99,31.33s10.48,31.45,26.11,31.45c14.27,0,23.12-8.53,23.12-26.19h-19.44v-5.34h25.5v4.31c0,21.48-10.8,32.8-29.18,32.8s-32.4-12.44-32.4-37.02Z"/>
    <path class="st0" d="M1147.93,1019h26.42c14.48,0,20.65,7.3,20.65,17.06,0,7.41-3.5,13.15-11,15.51,9.45,2.15,15.42,8.44,15.42,18.81,0,12.12-8.01,20.56-25.07,20.56h-26.42v-71.95ZM1188.51,1036.66c0-7.7-4.39-12.21-14.88-12.21h-19.44v24.87h19.44c10.48,0,14.88-5.05,14.88-12.67ZM1192.85,1070.07c0-9.25-6.29-15.19-18.93-15.19h-19.73v30.53h19.73c12.64,0,18.93-5.86,18.93-15.34Z"/>
    <path class="st0" d="M1250.35,1019h44.72v5.66h-38.46v26.51h35.36v5.34h-35.36v28.78h39.46v5.66h-45.72v-71.95Z"/>
    <path class="st0" d="M1346.88,1019h25.39c16.14,0,24.67,8.01,24.67,21.57,0,11.12-5.97,18.61-17.06,20.77l17.58,29.61h-6.49l-17.15-28.89h-20.68v28.89h-6.26v-71.95ZM1390.57,1040.57c0-10.48-6.38-15.91-18.5-15.91h-18.93v31.74h18.93c12.12,0,18.5-5.54,18.5-15.83Z"/>
    <path class="st0" d="M1472.13,1019h7.5l27.97,71.95h-6.69l-7.41-19.44h-35.24l-7.41,19.44h-6.66l27.95-71.95ZM1491.55,1066.59l-15.39-40.5h-.52l-15.42,40.5h31.33Z"/>
    <path class="st0" d="M1567.34,1024.75h-23.32v-5.74h52.93v5.74h-23.35v66.2h-6.26v-66.2Z"/>
    <path class="st0" d="M1647.28,1063.81v-44.81h6.38v44.49c0,14.71,7.61,22.83,20.65,22.83s20.77-8.13,20.77-22.83v-44.49h6.38v44.81c0,17.78-10.4,28.18-27.14,28.18s-27.03-10.4-27.03-28.18Z"/>
    <path class="st0" d="M1754.87,1019h7.41l40.9,62.7h.2v-62.7h6.26v71.95h-7.5l-40.7-62.58h-.32v62.58h-6.26v-71.95Z"/>
    <path class="st0" d="M1861.48,1054.96c0-24.56,13.38-36.88,32.28-36.88,13.76,0,23.32,6.38,26.42,18.09h-6.18c-2.87-7.81-9.45-12.55-20.25-12.55-15.62,0-25.99,10.37-25.99,31.33s10.48,31.45,26.11,31.45c14.27,0,23.12-8.53,23.12-26.19h-19.44v-5.34h25.5v4.31c0,21.48-10.8,32.8-29.18,32.8s-32.4-12.44-32.4-37.02Z"/>
    <path class="st0" d="M1033.47,1071.02c0-9.88,6.46-15.94,15.83-21.08-4.34-5.14-7.81-10.37-7.81-16.54,0-7.81,5.54-15.31,17.98-15.31s17.89,6.78,17.89,15.51c0,6.58-3.5,13.15-14.39,18.61l16.63,18.38c2.15-4.51,3.5-10.28,3.5-17.26h9.25c0,10.48-2.36,18.61-6.18,24.56l11.72,13.07h-11.6l-5.86-6.49c-6.06,5.26-13.87,7.52-21.48,7.52-14.79,0-25.48-8.53-25.48-20.97ZM1059.98,1083.34c5.23,0,10.37-1.84,14.39-5.54l-19.65-21.8c-7.5,3.82-10.57,8.73-10.57,14.07,0,7.61,6.38,13.27,15.83,13.27ZM1057.4,1045.94c7.93-4.14,10.8-7.81,10.8-12.35,0-5.14-3.71-8.13-8.85-8.13-5.54,0-8.82,3.42-8.82,7.93,0,4.22,2.96,8.01,6.86,12.55Z"/>
  </g>
  <path class="st0" d="M1174.83,642.21l-4.84-.76,4.84-1.09c11.35-3.96,24.54-15.83,24.54-37.21,0-13.19-4.49-23.22-12.67-31.4-10.56-11.08-27.18-18.21-55.68-18.21h-112.82c20.55,6.21,35.23,17.6,43.94,27.71,0,0,2.81,3.18,5.19,6.9l-36.07,18.17-4.49-5.01c-7.39-8.18-21.64-16.63-41.69-16.63-21.9,0-32.19,9.5-32.19,19.79s7.92,15.04,24.01,17.15l31.67,4.22c21.64,2.9,37.47,9.76,47.76,20.06,9.5,9.5,14.51,22.17,14.51,37.74,0,23.16-13.93,46.63-45.14,56.21h110.59c28.5,0,44.6-6.33,55.68-16.63,9.24-8.97,14.51-20.58,14.51-36.94v-1.32c0-27.44-20.32-41.17-31.67-42.75ZM1129.18,588.64c16.36,0,24.8,6.6,24.8,19.79s-8.18,20.32-24.54,20.32l-38.28-.15-.06-40.02,38.07.06ZM1135.51,704.75l-44.41-.09v-42.12h44.14c16.36-.01,24.81,7.38,24.81,20.57,0,14.51-8.18,21.64-24.54,21.64Z"/>
  <path class="st0" d="M1002.77,668.86l-32.72-4.49c-20.58-2.64-34.83-8.71-45.39-18.74-9.5-8.97-15.31-21.11-15.31-36.42,0-29.04,16.24-47.56,41.96-55.68h-61.88v-46.53h-3.3v46.53h0s-43.23,0-43.23,0v-46.53h-3.3v46.53h-46.1v3.3h46.1v179.71h-46.1v3.3h46.1v46.53h3.3v-46.53h43.23v46.53h3.3v-46.53h67.06c-21.52-5.76-35.82-16.86-45.82-26.92,0,0-6.81-7.03-9.05-10.64l35.97-18.12,3.17,3.69c10.03,10.29,27.18,20.58,50.67,20.58s36.15-8.97,36.15-21.37-13.19-16.62-24.81-18.21ZM842.91,556.84h43.23v179.71h-43.23v-179.71Z"/>
</svg>