<svg xmlns="http://www.w3.org/2000/svg" viewBox="0 0 100 100">
  <g fill="#1d1d1b">
    <path d="M72.42,46.65l-.63-.1.63-.14c1.47-.51,3.17-2.05,3.17-4.81,0-1.7-.58-3-1.64-4.06-1.36-1.43-3.51-2.35-7.19-2.35h-14.58c2.65.8,4.55,2.27,5.68,3.58,0,0,.36.41.67.89l-4.66,2.35-.58-.65c-.95-1.06-2.8-2.15-5.39-2.15-2.83,0-4.16,1.23-4.16,2.56s1.02,1.94,3.1,2.22l4.09.55c2.8.38,4.84,1.26,6.17,2.59,1.23,1.23,1.88,2.86,1.88,4.88,0,2.99-1.8,6.03-5.83,7.26h14.29c3.68,0,5.76-.82,7.19-2.15,1.19-1.16,1.88-2.66,1.88-4.77v-.17c0-3.55-2.63-5.32-4.09-5.52ZM66.52,39.73c2.11,0,3.21.85,3.21,2.56s-1.06,2.63-3.17,2.63l-4.95-.02v-5.17s4.91,0,4.91,0ZM67.34,54.73h-5.74v-5.45h5.7c2.11,0,3.21.95,3.21,2.66,0,1.88-1.06,2.8-3.17,2.8Z"/>
    <path d="M50.19,50.09l-4.23-.58c-2.66-.34-4.5-1.13-5.87-2.42-1.23-1.16-1.98-2.73-1.98-4.71,0-3.75,2.1-6.15,5.42-7.19h-8v-6.01h-.43v6.01h0s-5.59,0-5.59,0v-6.01h-.43v6.01h-5.96v.43h5.96v23.22h-5.59v-23.22Z"/>
    <path d="M37.37,60.9h.22v1.47h-.22v-1.47Z"/>
    <path d="M38.67,60.9h.27l.49,1.18.49-1.18h.27v1.47h-.22v-1.08h0l-.45,1.08h-.17l-.45-1.08h0v1.08h-.22v-1.47Z"/>
    <path d="M41.27,60.9h.27l.49,1.18.49-1.18h.27v1.47h-.22v-1.08h0l-.45,1.08h-.17l-.45-1.08h0v1.08h-.22v-1.47Z"/>
    <path d="M43.83,61.64c0-.47.28-.75.68-.75s.67.28.67.75-.28.75-.67.75-.68-.28-.68-.75ZM44.96,61.64c0-.36-.18-.56-.45-.56s-.45.2-.45.56.18.57.45.57.45-.2.45-.57Z"/>
    <path d="M46.23,60.9h.56c.31,0,.45.15.45.36,0,.16-.07.26-.2.3.19.05.3.18.3.38,0,.24-.17.43-.54.43h-.57v-1.47ZM47.01,61.29c0-.13-.09-.2-.24-.2h-.33v.41h.33c.15,0,.24-.07.24-.21ZM47.1,61.93c0-.15-.1-.25-.32-.25h-.34v.5h.34c.22,0,.32-.11.32-.25Z"/>
    <path d="M48.36,60.9h.22v1.47h-.22v-1.47Z"/>
    <path d="M49.66,60.9h.22v1.28h.73v.19h-.94v-1.47Z"/>
    <path d="M51.62,60.9h.22v1.47h-.22v-1.47Z"/>
    <path d="M52.93,60.9h.95v.19h-.73v.44h.67v.17h-.67v.47h.76v.19h-.97v-1.47Z"/>
    <path d="M54.92,60.9h.23l.72,1.13h0v-1.13h.22v1.47h-.24l-.71-1.11h0v1.11h-.22v-1.47Z"/>
    <path d="M37.34,64.84h.13c.01.18.14.32.42.32.27,0,.39-.13.39-.31s-.13-.26-.32-.29l-.19-.04c-.26-.05-.39-.18-.39-.38,0-.22.16-.38.49-.38s.49.16.49.37h-.12c-.01-.14-.12-.26-.37-.26s-.36.12-.36.27c0,.14.08.23.3.27l.19.04c.24.05.41.15.41.4,0,.26-.19.42-.53.42-.36,0-.55-.19-.55-.43Z"/>
    <path d="M39.44,64.51c0-.5.27-.75.65-.75.29,0,.51.14.56.42h-.13c-.05-.2-.21-.31-.43-.31-.31,0-.53.21-.53.64s.22.64.53.64c.22,0,.38-.11.43-.31h.13c-.05.28-.27.42-.56.42-.38,0-.65-.25-.65-.75Z"/>
    <path d="M42.65,64.59h-.84v.66h-.13v-1.47h.13v.7h.84v-.7h.13v1.47h-.13v-.66Z"/>
    <path d="M44.36,63.78h.15l.57,1.47h-.14l-.15-.4h-.72l-.15.4h-.14l.57-1.47ZM44.76,64.75l-.31-.83h-.01l-.31.83h.64ZM44.17,63.45s.04-.09.09-.09.09.04.09.09-.04.09-.09.09-.09-.04-.09-.09ZM44.53,63.45s.04-.09.09-.09.09.04.09.09-.04.09-.09.09-.09-.04-.09-.09Z"/>
    <path d="M46.3,63.9h-.48v-.12h1.08v.12h-.48v1.35h-.13v-1.35Z"/>
    <path d="M47.89,65.13l.95-1.24h-.91v-.12h1.05v.12l-.95,1.24h.96v.12h-1.1v-.12Z"/>
    <path d="M50.04,64.69v-.91h.13v.91c0,.3.16.47.42.47s.42-.17.42-.47v-.91h.13v.91c0,.36-.21.57-.55.57s-.55-.21-.55-.57Z"/>
    <path d="M52.24,63.78h.15l.83,1.28h0v-1.28h.13v1.47h-.15l-.83-1.28h0v1.28h-.13v-1.47Z"/>
    <path d="M54.41,64.51c0-.5.27-.75.66-.75.28,0,.48.13.54.37h-.13c-.06-.16-.19-.26-.41-.26-.32,0-.53.21-.53.64s.21.64.53.64c.29,0,.47-.17.47-.53h-.4v-.11h.52v.09c0,.44-.22.67-.59.67s-.66-.25-.66-.75Z"/>
im.G    <path d="M59.03,63.78h.54c.3,0,.42.15.42.35,0,.15-.07.27-.22.32.19.04.31.17.31.38,0,.25-.16.42-.51.42h-.54v-1.47ZM59.85,64.14c0-.16-.09-.25-.3-.25h-.4v.51h.4c.21,0,.3-.1.3-.26ZM59.94,64.82c0-.19-.13-.31-.39-.31h-.4v.62h.4c.26,0,.39-.12.39-.31Z"/>
    <path d="M61.11,63.78h.91v.12h-.78v.54h.72v.11h-.72v.59h.8v.12h-.93v-1.47Z"/>
    <path d="M63.08,63.78h.52c.33,0,.5.16.5.44,0,.23-.12.38-.35.42l.36.6h-.13l-.35-.59h-.42v.59h-.13v-1.47ZM63.97,64.22c0-.21-.13-.32-.38-.32h-.39v.65h.39c.25,0,.38-.11.38-.32Z"/>
    <path d="M65.63,63.78h.15l.57,1.47h-.14l-.15-.4h-.72l-.15.4h-.14l.57-1.47ZM66.03,64.75l-.31-.83h-.01l-.31.83h.64Z"/>
    <path d="M67.58,63.9h-.48v-.12h1.08v.12h-.48v1.35h-.13v-1.35Z"/>
    <path d="M69.2,64.69v-.91h.13v.91c0,.3.16.47.42.47s.42-.17.42-.47v-.91h.13v.91c0,.36-.21.57-.55.57s-.55-.21-.55-.57Z"/>
Access    <path d="M71.4,63.78h.15l.83,1.28h0v-1.28h.13v1.47h-.15l-.83-1.28h0v1.28h-.13v-1.47Z"/>
    <path d="M73.57,64.51c0-.5.27-.75.66-.75.28,0,.48.13.54.37h-.13c-.06-.16-.19-.26-.41-.26-.32,0-.53.21-.53.64s.21.64.53.64c.29,0,.47-.17.47-.53h-.4v-.11h.52v.09c0,.44-.22.67-.59.67s-.66-.25-.66-.75Z"/>
s    <path d="M56.69,64.84c0-.2.13-.32.32-.43-.09-.1-.16-.21-.16-.34,0-.16.11-.31.37-.31s.36.14.36.32c0,.13-.07.27-.29.38l.34.37c.04-.09.07-.21.07-.35h.19c0,.21-.05.38-.13.5l.24.27h-.24l-.12-.13c-.12.11-.28.15-.44.15-.3,0-.52-.17-.52-.43ZM57.23,65.09c.11,0,.21-.04.29-.11l-.4-.44c-.15.08-.22.18-.22.29,0,.16.13.27.32.27ZM57.18,64.33c.16-.08.22-.16.22-.25,0-.1-.08-.17-.18-.17-.11,0-.18.07-.18.16,0,.09.06.16.14.26Z"/>
  </g>
</svg>
