<svg xmlns="http://www.w3.org/2000/svg"
     width="100%" height="100%"
     viewBox="0 0 100 100"
     preserveAspectRatio="xMidYMid slice">
  <defs>
    <pattern id="pattern-lines"
             x="0" y="0"
             width="100" height="100"
             patternUnits="userSpaceOnUse">
      <!-- Diagonals (45°) -->
      <path d="M-25 25 L25 -25 M75 125 L125 75" />
      <path d="M75 -25 L125 25 M-25 75 L25 125" />
      <path d="M25 75 L75 25" />
      <path d="M-10 110 L40 60" />
      <path d="M60 40 L110 -10" />
      <path d="M-30 80 L80 -30" />
      <path d="M20 130 L130 20" />
      <path d="M-20 40 L40 -20" />
      <path d="M60 120 L120 60" />

      <!-- Horizontal (90°) -->
      <path d="M-10 10 L110 10" />
      <path d="M-10 32 L110 32" />
      <path d="M-10 55 L110 55" />
      <path d="M-10 82 L110 82" />
      <path d="M-30 95 L130 95" />

      <!-- Vertical (90°) -->
      <path d="M15 -10 L15 110" />
      <path d="M38 -10 L38 110" />
      <path d="M55 -10 L55 110" />
      <path d="M70 -10 L70 110" />
      <path d="M92 -10 L92 110" />
    </pattern>
  </defs>

  <rect x="0" y="0" width="100%" height="100%" fill="url(#pattern-lines)" />
</svg>
